<svg class="main-svg" xmlns="http://www.w3.org/2000/svg" xmlns:xlink="http://www.w3.org/1999/xlink" width="700" height="500"><rect x="0" y="0" width="700" height="500" style="fill: rgb(255, 255, 255); fill-opacity: 1;"/><defs id="defs-12db24"><g class="clips"><clipPath class="axesclip" id="clip12db24x"><rect x="80" y="0" width="439" height="500"/></clipPath><clipPath class="axesclip" id="clip12db24y"><rect x="0" y="100" width="700" height="320"/></clipPath><clipPath class="axesclip" id="clip12db24xy"><rect x="80" y="100" width="439" height="320"/></clipPath></g></defs><g class="draglayer"><g transform="translate(80,100)"/></g><g class="subplot xy"><rect x="80" y="100" width="439" height="320" style="stroke-width: 0px; fill: rgb(255, 255, 255); fill-opacity: 1;"/><g transform="translate(80,100)"><path class="ygrid crisp" d="M0,0h439" transform="translate(0,272.43)" style="stroke: rgb(238, 238, 238); stroke-opacity: 1; stroke-width: 1px;"/><path class="ygrid crisp" d="M0,0h439" transform="translate(0,224.85)" style="stroke: rgb(238, 238, 238); stroke-opacity: 1; stroke-width: 1px;"/><path class="ygrid crisp" d="M0,0h439" transform="translate(0,177.28)" style="stroke: rgb(238, 238, 238); stroke-opacity: 1; stroke-width: 1px;"/><path class="ygrid crisp" d="M0,0h439" transform="translate(0,129.7)" style="stroke: rgb(238, 238, 238); stroke-opacity: 1; stroke-width: 1px;"/><path class="ygrid crisp" d="M0,0h439" transform="translate(0,82.13)" style="stroke: rgb(238, 238, 238); stroke-opacity: 1; stroke-width: 1px;"/><path class="ygrid crisp" d="M0,0h439" transform="translate(0,34.55)" style="stroke: rgb(238, 238, 238); stroke-opacity: 1; stroke-width: 1px;"/></g><g/><g transform="translate(80,100)"><path class="yzl zl crisp" d="M0,0h439" transform="translate(0,320)" style="stroke: rgb(68, 68, 68); stroke-opacity: 1; stroke-width: 1px;"/></g><g/><svg preserveAspectRatio="none" x="80" y="100" width="439" height="320" viewBox="0 0 439 320" style="fill: none;"><g class="maplayer"/><g class="barlayer"><g class="trace bars" style="opacity: 1;"><g class="points"><path d="M6.27,320V17.43H23V320Z" style="stroke-width: 0px; fill: rgb(31, 119, 180); fill-opacity: 1;"/><path d="M68.99,320V17.43H85.71V320Z" style="stroke-width: 0px; fill: rgb(31, 119, 180); fill-opacity: 1;"/><path d="M131.7,320V34.55H148.42V320Z" style="stroke-width: 0px; fill: rgb(31, 119, 180); fill-opacity: 1;"/><path d="M194.41,320V34.55H211.14V320Z" style="stroke-width: 0px; fill: rgb(31, 119, 180); fill-opacity: 1;"/><path d="M257.13,320V35.51H273.85V320Z" style="stroke-width: 0px; fill: rgb(31, 119, 180); fill-opacity: 1;"/><path d="M319.84,320V35.51H336.57V320Z" style="stroke-width: 0px; fill: rgb(31, 119, 180); fill-opacity: 1;"/><path d="M382.56,320V35.51H399.28V320Z" style="stroke-width: 0px; fill: rgb(31, 119, 180); fill-opacity: 1;"/></g></g><g class="trace bars" style="opacity: 1;"><g class="points"><path d="M23,320V34.55H39.72V320Z" style="stroke-width: 0px; fill: rgb(214, 39, 40); fill-opacity: 1;"/><path d="M85.71,320V34.55H102.43V320Z" style="stroke-width: 0px; fill: rgb(214, 39, 40); fill-opacity: 1;"/><path d="M148.42,320V34.55H165.15V320Z" style="stroke-width: 0px; fill: rgb(214, 39, 40); fill-opacity: 1;"/><path d="M211.14,320V34.55H227.86V320Z" style="stroke-width: 0px; fill: rgb(214, 39, 40); fill-opacity: 1;"/><path d="M273.85,320V34.55H290.58V320Z" style="stroke-width: 0px; fill: rgb(214, 39, 40); fill-opacity: 1;"/><path d="M336.57,320V34.55H353.29V320Z" style="stroke-width: 0px; fill: rgb(214, 39, 40); fill-opacity: 1;"/><path d="M399.28,320V34.55H416V320Z" style="stroke-width: 0px; fill: rgb(214, 39, 40); fill-opacity: 1;"/></g></g><g class="trace bars" style="opacity: 1;"><g class="points"><path d="M39.72,320V16H56.44V320Z" style="stroke-width: 0px; fill: rgb(148, 103, 189); fill-opacity: 1;"/><path d="M102.43,320V16.95H119.16V320Z" style="stroke-width: 0px; fill: rgb(148, 103, 189); fill-opacity: 1;"/><path d="M165.15,320V34.08H181.87V320Z" style="stroke-width: 0px; fill: rgb(148, 103, 189); fill-opacity: 1;"/><path d="M227.86,320V34.08H244.59V320Z" style="stroke-width: 0px; fill: rgb(148, 103, 189); fill-opacity: 1;"/><path d="M290.58,320V35.03H307.3V320Z" style="stroke-width: 0px; fill: rgb(148, 103, 189); fill-opacity: 1;"/><path d="M353.29,320V35.03H370.01V320Z" style="stroke-width: 0px; fill: rgb(148, 103, 189); fill-opacity: 1;"/><path d="M416,320V35.03H432.73V320Z" style="stroke-width: 0px; fill: rgb(148, 103, 189); fill-opacity: 1;"/></g></g></g><g class="errorlayer"><g class="errorbars"/><g class="errorbars"/><g class="errorbars"/><g class="errorbars"/><g class="errorbars"/></g><g class="boxlayer"/><g class="scatterlayer"><g class="trace scatter" style="stroke-miterlimit: 2; opacity: 1;"><path class="js-line" d="M31.36,61.2L94.07,59.05L156.79,52.16L219.5,52.16L282.21,54.77L407.64,54.77" style="fill: none; stroke: rgb(255, 127, 14); stroke-opacity: 1; stroke-width: 2px;"/><g class="points"><path class="point" transform="translate(31.36,61.2)" d="M3,0A3,3 0 1,1 0,-3A3,3 0 0,1 3,0Z" style="opacity: 1; stroke-width: 0px; fill: rgb(255, 127, 14); fill-opacity: 1;"/><path class="point" transform="translate(94.07,59.05)" d="M3,0A3,3 0 1,1 0,-3A3,3 0 0,1 3,0Z" style="opacity: 1; stroke-width: 0px; fill: rgb(255, 127, 14); fill-opacity: 1;"/><path class="point" transform="translate(156.79,52.16)" d="M3,0A3,3 0 1,1 0,-3A3,3 0 0,1 3,0Z" style="opacity: 1; stroke-width: 0px; fill: rgb(255, 127, 14); fill-opacity: 1;"/><path class="point" transform="translate(219.5,52.16)" d="M3,0A3,3 0 1,1 0,-3A3,3 0 0,1 3,0Z" style="opacity: 1; stroke-width: 0px; fill: rgb(255, 127, 14); fill-opacity: 1;"/><path class="point" transform="translate(282.21,54.77)" d="M3,0A3,3 0 1,1 0,-3A3,3 0 0,1 3,0Z" style="opacity: 1; stroke-width: 0px; fill: rgb(255, 127, 14); fill-opacity: 1;"/><path class="point" transform="translate(344.93,54.77)" d="M3,0A3,3 0 1,1 0,-3A3,3 0 0,1 3,0Z" style="opacity: 1; stroke-width: 0px; fill: rgb(255, 127, 14); fill-opacity: 1;"/><path class="point" transform="translate(407.64,54.77)" d="M3,0A3,3 0 1,1 0,-3A3,3 0 0,1 3,0Z" style="opacity: 1; stroke-width: 0px; fill: rgb(255, 127, 14); fill-opacity: 1;"/></g></g><g class="trace scatter" style="stroke-miterlimit: 2; opacity: 1;"><path class="js-line" d="M31.36,41.21L94.07,39.79L156.79,52.63L219.5,52.87L282.21,54.3L407.64,54.54" style="fill: none; stroke: rgb(44, 160, 44); stroke-opacity: 1; stroke-width: 2px;"/><g class="points"><path class="point" transform="translate(31.36,41.21)" d="M3,0A3,3 0 1,1 0,-3A3,3 0 0,1 3,0Z" style="opacity: 1; stroke-width: 0px; fill: rgb(44, 160, 44); fill-opacity: 1;"/><path class="point" transform="translate(94.07,39.79)" d="M3,0A3,3 0 1,1 0,-3A3,3 0 0,1 3,0Z" style="opacity: 1; stroke-width: 0px; fill: rgb(44, 160, 44); fill-opacity: 1;"/><path class="point" transform="translate(156.79,52.63)" d="M3,0A3,3 0 1,1 0,-3A3,3 0 0,1 3,0Z" style="opacity: 1; stroke-width: 0px; fill: rgb(44, 160, 44); fill-opacity: 1;"/><path class="point" transform="translate(219.5,52.87)" d="M3,0A3,3 0 1,1 0,-3A3,3 0 0,1 3,0Z" style="opacity: 1; stroke-width: 0px; fill: rgb(44, 160, 44); fill-opacity: 1;"/><path class="point" transform="translate(282.21,54.3)" d="M3,0A3,3 0 1,1 0,-3A3,3 0 0,1 3,0Z" style="opacity: 1; stroke-width: 0px; fill: rgb(44, 160, 44); fill-opacity: 1;"/><path class="point" transform="translate(344.93,54.54)" d="M3,0A3,3 0 1,1 0,-3A3,3 0 0,1 3,0Z" style="opacity: 1; stroke-width: 0px; fill: rgb(44, 160, 44); fill-opacity: 1;"/><path class="point" transform="translate(407.64,54.54)" d="M3,0A3,3 0 1,1 0,-3A3,3 0 0,1 3,0Z" style="opacity: 1; stroke-width: 0px; fill: rgb(44, 160, 44); fill-opacity: 1;"/></g></g></g></svg><g/><path class="crisp" transform="translate(80,100)" d="M-1,320.5h441" style="fill: none; stroke-width: 1px; stroke: rgb(0, 0, 0); stroke-opacity: 0;"/><path class="crisp" transform="translate(80,100)" d="M-0.5,-1v321" stroke-width="1px" style="fill: none; stroke: rgb(0, 0, 0); stroke-opacity: 0;"/><g/><g transform="translate(80,100)"><g class="xtick" data-bb="861"><text text-anchor="middle" x="0" y="334" transform="translate(31.36,0)" style="font-family: 'Open sans', verdana, arial, sans-serif; font-size: 12px; fill: rgb(68, 68, 68); fill-opacity: 1; visibility: visible; white-space: pre;" data-bb="853">v2 = 4.4</text></g><g class="xtick" data-bb="862"><text text-anchor="middle" x="0" y="334" transform="translate(94.07,0)" style="font-family: 'Open sans', verdana, arial, sans-serif; font-size: 12px; fill: rgb(68, 68, 68); fill-opacity: 1; visibility: visible; white-space: pre;" data-bb="854">v2 = 4.4.2</text></g><g class="xtick" data-bb="863"><text text-anchor="middle" x="0" y="334" transform="translate(156.79,0)" style="font-family: 'Open sans', verdana, arial, sans-serif; font-size: 12px; fill: rgb(68, 68, 68); fill-opacity: 1; visibility: visible; white-space: pre;" data-bb="855">v2 = 4.3</text></g><g class="xtick" data-bb="864"><text text-anchor="middle" x="0" y="334" transform="translate(219.5,0)" style="font-family: 'Open sans', verdana, arial, sans-serif; font-size: 12px; fill: rgb(68, 68, 68); fill-opacity: 1; visibility: visible; white-space: pre;" data-bb="856">v2 = 4.3.1</text></g><g class="xtick" data-bb="865"><text text-anchor="middle" x="0" y="334" transform="translate(282.21,0)" style="font-family: 'Open sans', verdana, arial, sans-serif; font-size: 12px; fill: rgb(68, 68, 68); fill-opacity: 1; visibility: visible; white-space: pre;" data-bb="857">v2 = 4.2</text></g><g class="xtick" data-bb="866"><text text-anchor="middle" x="0" y="334" transform="translate(344.93,0)" style="font-family: 'Open sans', verdana, arial, sans-serif; font-size: 12px; fill: rgb(68, 68, 68); fill-opacity: 1; visibility: visible; white-space: pre;" data-bb="858">v2 = 4.2.1</text></g><g class="xtick" data-bb="867"><text text-anchor="middle" x="0" y="334" transform="translate(407.64,0)" style="font-family: 'Open sans', verdana, arial, sans-serif; font-size: 12px; fill: rgb(68, 68, 68); fill-opacity: 1; visibility: visible; white-space: pre;" data-bb="859">v2 = 4.2.2</text></g></g><g transform="translate(80,100)"><g class="ytick" data-bb="869"><text text-anchor="end" x="-2" y="6" transform="translate(0,320)" style="font-family: 'Open sans', verdana, arial, sans-serif; font-size: 12px; fill: rgb(68, 68, 68); fill-opacity: 1; visibility: visible; white-space: pre;">0</text></g><g class="ytick" data-bb="870"><text text-anchor="end" x="-2" y="6" transform="translate(0,272.43)" style="font-family: 'Open sans', verdana, arial, sans-serif; font-size: 12px; fill: rgb(68, 68, 68); fill-opacity: 1; visibility: visible; white-space: pre;">200</text></g><g class="ytick" data-bb="871"><text text-anchor="end" x="-2" y="6" transform="translate(0,224.85)" style="font-family: 'Open sans', verdana, arial, sans-serif; font-size: 12px; fill: rgb(68, 68, 68); fill-opacity: 1; visibility: visible; white-space: pre;">400</text></g><g class="ytick" data-bb="872"><text text-anchor="end" x="-2" y="6" transform="translate(0,177.28)" style="font-family: 'Open sans', verdana, arial, sans-serif; font-size: 12px; fill: rgb(68, 68, 68); fill-opacity: 1; visibility: visible; white-space: pre;">600</text></g><g class="ytick" data-bb="873"><text text-anchor="end" x="-2" y="6" transform="translate(0,129.7)" style="font-family: 'Open sans', verdana, arial, sans-serif; font-size: 12px; fill: rgb(68, 68, 68); fill-opacity: 1; visibility: visible; white-space: pre;">800</text></g><g class="ytick" data-bb="874"><text text-anchor="end" x="-2" y="6" transform="translate(0,82.13)" style="font-family: 'Open sans', verdana, arial, sans-serif; font-size: 12px; fill: rgb(68, 68, 68); fill-opacity: 1; visibility: visible; white-space: pre;">1000</text></g><g class="ytick" data-bb="875"><text text-anchor="end" x="-2" y="6" transform="translate(0,34.55)" style="font-family: 'Open sans', verdana, arial, sans-serif; font-size: 12px; fill: rgb(68, 68, 68); fill-opacity: 1; visibility: visible; white-space: pre;">1200</text></g></g><g/></g><g class="shapelayer"/><g class="glimages"/><text class="js-plot-link-container" y="491" text-anchor="end" x="693" style="font-family: 'Open Sans', Arial, sans-serif; font-size: 12px; fill: rgb(68, 68, 68); pointer-events: all;"><tspan class="js-link-to-tool"/><tspan class="js-link-spacer"/><tspan class="js-sourcelinks"/></text><g class="infolayer"><g class="g-gtitle"/><g class="g-xtitle" data-bb="860"><text class="xtitle" x="299.5" y="472" text-anchor="middle" style="font-family: 'Open sans', verdana, arial, sans-serif; font-size: 14px; fill: rgb(68, 68, 68); opacity: 1; white-space: pre; visibility: visible;">Eclipse JDT Core版本</text></g><g class="g-ytitle" data-bb="868"><text class="ytitle" transform="rotate(-90,42,260) translate(0, 0)" x="42" y="260" text-anchor="middle" style="font-family: 'Open sans', verdana, arial, sans-serif; font-size: 14px; fill: rgb(68, 68, 68); opacity: 1; white-space: pre; visibility: visible;">文件数量</text></g><svg class="legend" x="528" y="100" width="160" height="105"><rect class="bg" x="0" y="0" width="160" height="105" style="stroke: rgb(68, 68, 68); stroke-opacity: 1; fill: rgb(255, 255, 255); fill-opacity: 1; stroke-width: 0px;"/><g class="traces" transform="translate(0,14.5)" style="opacity: 1;"><g class="legendfill"/><g class="legendlines"/><g class="legendsymbols" style="opacity: 1;"><g class="legendpoints"><path class="legendbar" d="M6,6H-6V-6H6Z" transform="translate(20,0)" style="stroke-width: 0px; fill: rgb(31, 119, 180); fill-opacity: 1;"/></g></g><text class="legendtext" x="40" y="4.680000000000001" style="text-anchor: start; font-family: 'Open sans', verdana, arial, sans-serif; font-size: 12px; fill: rgb(68, 68, 68); fill-opacity: 1; white-space: pre; visibility: visible;" data-bb="876">v2文件数</text><rect class="legendtoggle" pointer-events="all" x="0" y="-9.5" height="19" style="cursor: pointer; fill: rgb(0, 0, 0); fill-opacity: 0;" width="154.3125"/></g><g class="traces" transform="translate(0,33.5)" style="opacity: 1;"><g class="legendfill"/><g class="legendlines"><path class="js-line" d="M5,0h30" style="fill: none; stroke: rgb(255, 127, 14); stroke-opacity: 1; stroke-width: 2px;"/></g><g class="legendsymbols" style="opacity: 1;"><g class="legendpoints"><path class="scatterpts" transform="translate(20,0)" d="M3,0A3,3 0 1,1 0,-3A3,3 0 0,1 3,0Z" style="opacity: 1; stroke-width: 0px; fill: rgb(255, 127, 14); fill-opacity: 1;"/></g></g><text class="legendtext" x="40" y="4.680000000000001" style="text-anchor: start; font-family: 'Open sans', verdana, arial, sans-serif; font-size: 12px; fill: rgb(68, 68, 68); fill-opacity: 1; white-space: pre; visibility: visible;" data-bb="877">diff(v2,v1)成功分析数</text><rect class="legendtoggle" pointer-events="all" x="0" y="-9.5" height="19" style="cursor: pointer; fill: rgb(0, 0, 0); fill-opacity: 0;" width="154.3125"/></g><g class="traces" transform="translate(0,52.5)" style="opacity: 1;"><g class="legendfill"/><g class="legendlines"><path class="js-line" d="M5,0h30" style="fill: none; stroke: rgb(44, 160, 44); stroke-opacity: 1; stroke-width: 2px;"/></g><g class="legendsymbols" style="opacity: 1;"><g class="legendpoints"><path class="scatterpts" transform="translate(20,0)" d="M3,0A3,3 0 1,1 0,-3A3,3 0 0,1 3,0Z" style="opacity: 1; stroke-width: 0px; fill: rgb(44, 160, 44); fill-opacity: 1;"/></g></g><text class="legendtext" x="40" y="4.680000000000001" style="text-anchor: start; font-family: 'Open sans', verdana, arial, sans-serif; font-size: 12px; fill: rgb(68, 68, 68); fill-opacity: 1; white-space: pre; visibility: visible;" data-bb="878">diff(v2,v4)成功分析数</text><rect class="legendtoggle" pointer-events="all" x="0" y="-9.5" height="19" style="cursor: pointer; fill: rgb(0, 0, 0); fill-opacity: 0;" width="154.3125"/></g><g class="traces" transform="translate(0,71.5)" style="opacity: 1;"><g class="legendfill"/><g class="legendlines"/><g class="legendsymbols" style="opacity: 1;"><g class="legendpoints"><path class="legendbar" d="M6,6H-6V-6H6Z" transform="translate(20,0)" style="stroke-width: 0px; fill: rgb(214, 39, 40); fill-opacity: 1;"/></g></g><text class="legendtext" x="40" y="4.680000000000001" style="text-anchor: start; font-family: 'Open sans', verdana, arial, sans-serif; font-size: 12px; fill: rgb(68, 68, 68); fill-opacity: 1; white-space: pre; visibility: visible;" data-bb="879">v1文件数</text><rect class="legendtoggle" pointer-events="all" x="0" y="-9.5" height="19" style="cursor: pointer; fill: rgb(0, 0, 0); fill-opacity: 0;" width="154.3125"/></g><g class="traces" transform="translate(0,90.5)" style="opacity: 1;"><g class="legendfill"/><g class="legendlines"/><g class="legendsymbols" style="opacity: 1;"><g class="legendpoints"><path class="legendbar" d="M6,6H-6V-6H6Z" transform="translate(20,0)" style="stroke-width: 0px; fill: rgb(148, 103, 189); fill-opacity: 1;"/></g></g><text class="legendtext" x="40" y="4.680000000000001" style="text-anchor: start; font-family: 'Open sans', verdana, arial, sans-serif; font-size: 12px; fill: rgb(68, 68, 68); fill-opacity: 1; white-space: pre; visibility: visible;" data-bb="880">v4文件数</text><rect class="legendtoggle" pointer-events="all" x="0" y="-9.5" height="19" width="154.3125" style="cursor: pointer; fill: rgb(0, 0, 0); fill-opacity: 0;"/></g></svg></g></svg>